# Blender v2.91.2 OBJ File: 'bush.blend'
# www.blender.org
mtllib bush.mtl
o Cone
v 0.278735 4.755618 1.559235
v 0.369168 4.755618 1.568142
v 0.456126 4.755618 1.594521
v 0.536267 4.755618 1.637357
v 0.606512 4.755618 1.695005
v 0.664160 4.755618 1.765249
v 0.706996 4.755618 1.845390
v 0.733374 4.755618 1.932348
v 0.742281 4.755618 2.022782
v 0.733374 4.755618 2.113215
v 0.706996 4.755618 2.200173
v 0.664160 4.755618 2.280314
v 0.606512 4.755618 2.350559
v 0.536267 4.755618 2.408207
v 0.456126 4.755618 2.451043
v 0.369168 4.755618 2.477422
v 0.278735 4.755618 2.486328
v 0.188301 4.755618 2.477421
v 0.101343 4.755618 2.451043
v 0.021202 4.755618 2.408206
v -0.049042 4.755618 2.350559
v -0.106690 4.755618 2.280314
v -0.149526 4.755618 2.200173
v -0.175905 4.755618 2.113215
v -0.184812 4.755618 2.022781
v -0.175905 4.755618 1.932348
v -0.149526 4.755618 1.845390
v -0.106690 4.755618 1.765249
v -0.049042 4.755618 1.695005
v 0.021203 4.755618 1.637357
v 0.101344 4.755618 1.594520
v 0.188302 4.755618 1.568142
v 0.278735 5.682711 2.022782
vt 0.250000 0.490000
vt 0.250000 0.250000
vt 0.296822 0.485388
vt 0.341844 0.471731
vt 0.383337 0.449553
vt 0.419706 0.419706
vt 0.449553 0.383337
vt 0.471731 0.341844
vt 0.485388 0.296822
vt 0.490000 0.250000
vt 0.485388 0.203178
vt 0.471731 0.158156
vt 0.449553 0.116663
vt 0.419706 0.080294
vt 0.383337 0.050447
vt 0.341844 0.028269
vt 0.296822 0.014612
vt 0.250000 0.010000
vt 0.203178 0.014612
vt 0.158156 0.028269
vt 0.116663 0.050447
vt 0.080294 0.080294
vt 0.050447 0.116663
vt 0.028269 0.158156
vt 0.014611 0.203179
vt 0.010000 0.250000
vt 0.014612 0.296822
vt 0.028269 0.341844
vt 0.050447 0.383337
vt 0.080295 0.419706
vt 0.116663 0.449553
vt 0.158156 0.471731
vt 0.750000 0.490000
vt 0.796822 0.485388
vt 0.841844 0.471731
vt 0.883337 0.449553
vt 0.919706 0.419706
vt 0.949553 0.383337
vt 0.971731 0.341844
vt 0.985388 0.296822
vt 0.990000 0.250000
vt 0.985388 0.203178
vt 0.971731 0.158156
vt 0.949553 0.116663
vt 0.919706 0.080294
vt 0.883337 0.050447
vt 0.841844 0.028269
vt 0.796822 0.014612
vt 0.750000 0.010000
vt 0.703178 0.014612
vt 0.658156 0.028269
vt 0.616663 0.050447
vt 0.580294 0.080294
vt 0.550447 0.116663
vt 0.528269 0.158156
vt 0.514611 0.203179
vt 0.510000 0.250000
vt 0.514612 0.296822
vt 0.528269 0.341844
vt 0.550447 0.383337
vt 0.580295 0.419706
vt 0.616663 0.449553
vt 0.658156 0.471731
vt 0.703179 0.485389
vt 0.203179 0.485389
vn 0.0878 0.4455 -0.8910
vn 0.2599 0.4455 -0.8567
vn 0.4220 0.4455 -0.7896
vn 0.5680 0.4455 -0.6921
vn 0.6921 0.4455 -0.5680
vn 0.7896 0.4455 -0.4220
vn 0.8567 0.4455 -0.2599
vn 0.8910 0.4455 -0.0878
vn 0.8910 0.4455 0.0878
vn 0.8567 0.4455 0.2599
vn 0.7896 0.4455 0.4220
vn 0.6921 0.4455 0.5680
vn 0.5680 0.4455 0.6921
vn 0.4220 0.4455 0.7896
vn 0.2599 0.4455 0.8567
vn 0.0878 0.4455 0.8910
vn -0.0878 0.4455 0.8910
vn -0.2599 0.4455 0.8567
vn -0.4220 0.4455 0.7896
vn -0.5680 0.4455 0.6921
vn -0.6921 0.4455 0.5680
vn -0.7896 0.4455 0.4220
vn -0.8567 0.4455 0.2599
vn -0.8910 0.4455 0.0878
vn -0.8910 0.4455 -0.0878
vn -0.8567 0.4455 -0.2599
vn -0.7896 0.4455 -0.4220
vn -0.6921 0.4455 -0.5680
vn -0.5680 0.4455 -0.6921
vn -0.4220 0.4455 -0.7896
vn 0.0000 -1.0000 0.0000
vn -0.2599 0.4455 -0.8567
vn -0.0878 0.4455 -0.8910
usemtl Material.002
s off
f 1/1/1 33/2/1 2/3/1
f 2/3/2 33/2/2 3/4/2
f 3/4/3 33/2/3 4/5/3
f 4/5/4 33/2/4 5/6/4
f 5/6/5 33/2/5 6/7/5
f 6/7/6 33/2/6 7/8/6
f 7/8/7 33/2/7 8/9/7
f 8/9/8 33/2/8 9/10/8
f 9/10/9 33/2/9 10/11/9
f 10/11/10 33/2/10 11/12/10
f 11/12/11 33/2/11 12/13/11
f 12/13/12 33/2/12 13/14/12
f 13/14/13 33/2/13 14/15/13
f 14/15/14 33/2/14 15/16/14
f 15/16/15 33/2/15 16/17/15
f 16/17/16 33/2/16 17/18/16
f 17/18/17 33/2/17 18/19/17
f 18/19/18 33/2/18 19/20/18
f 19/20/19 33/2/19 20/21/19
f 20/21/20 33/2/20 21/22/20
f 21/22/21 33/2/21 22/23/21
f 22/23/22 33/2/22 23/24/22
f 23/24/23 33/2/23 24/25/23
f 24/25/24 33/2/24 25/26/24
f 25/26/25 33/2/25 26/27/25
f 26/27/26 33/2/26 27/28/26
f 27/28/27 33/2/27 28/29/27
f 28/29/28 33/2/28 29/30/28
f 29/30/29 33/2/29 30/31/29
f 30/31/30 33/2/30 31/32/30
f 1/33/31 2/34/31 3/35/31 4/36/31 5/37/31 6/38/31 7/39/31 8/40/31 9/41/31 10/42/31 11/43/31 12/44/31 13/45/31 14/46/31 15/47/31 16/48/31 17/49/31 18/50/31 19/51/31 20/52/31 21/53/31 22/54/31 23/55/31 24/56/31 25/57/31 26/58/31 27/59/31 28/60/31 29/61/31 30/62/31 31/63/31 32/64/31
f 31/32/32 33/2/32 32/65/32
f 32/65/33 33/2/33 1/1/33
o Cone.001
v 0.279652 5.551522 0.900986
v 0.508747 5.551522 0.921102
v 0.729038 5.551522 0.980678
v 0.932060 5.551522 1.077423
v 1.110009 5.551522 1.207621
v 1.256049 5.551522 1.366267
v 1.364566 5.551522 1.547265
v 1.431391 5.551522 1.743660
v 1.453955 5.551522 1.947903
v 1.431391 5.551522 2.152147
v 1.364566 5.551522 2.348541
v 1.256049 5.551522 2.529539
v 1.110009 5.551522 2.688186
v 0.932060 5.551522 2.818383
v 0.729038 5.551522 2.915129
v 0.508747 5.551522 2.974705
v 0.279651 5.551522 2.994821
v 0.050556 5.551522 2.974704
v -0.169735 5.551522 2.915129
v -0.372757 5.551522 2.818383
v -0.550707 5.551522 2.688185
v -0.696746 5.551522 2.529539
v -0.805264 5.551522 2.348541
v -0.872088 5.551522 2.152146
v -0.894652 5.551522 1.947902
v -0.872088 5.551522 1.743659
v -0.805263 5.551522 1.547264
v -0.696745 5.551522 1.366266
v -0.550705 5.551522 1.207620
v -0.372755 5.551522 1.077422
v -0.169733 5.551522 0.980677
v 0.050558 5.551522 0.921102
v 0.279652 7.432364 1.947903
vt 0.250000 0.490000
vt 0.250000 0.250000
vt 0.296822 0.485388
vt 0.341844 0.471731
vt 0.383337 0.449553
vt 0.419706 0.419706
vt 0.449553 0.383337
vt 0.471731 0.341844
vt 0.485388 0.296822
vt 0.490000 0.250000
vt 0.485388 0.203178
vt 0.471731 0.158156
vt 0.449553 0.116663
vt 0.419706 0.080294
vt 0.383337 0.050447
vt 0.341844 0.028269
vt 0.296822 0.014612
vt 0.250000 0.010000
vt 0.203178 0.014612
vt 0.158156 0.028269
vt 0.116663 0.050447
vt 0.080294 0.080294
vt 0.050447 0.116663
vt 0.028269 0.158156
vt 0.014611 0.203179
vt 0.010000 0.250000
vt 0.014612 0.296822
vt 0.028269 0.341844
vt 0.050447 0.383337
vt 0.080295 0.419706
vt 0.116663 0.449553
vt 0.158156 0.471731
vt 0.750000 0.490000
vt 0.796822 0.485388
vt 0.841844 0.471731
vt 0.883337 0.449553
vt 0.919706 0.419706
vt 0.949553 0.383337
vt 0.971731 0.341844
vt 0.985388 0.296822
vt 0.990000 0.250000
vt 0.985388 0.203178
vt 0.971731 0.158156
vt 0.949553 0.116663
vt 0.919706 0.080294
vt 0.883337 0.050447
vt 0.841844 0.028269
vt 0.796822 0.014612
vt 0.750000 0.010000
vt 0.703178 0.014612
vt 0.658156 0.028269
vt 0.616663 0.050447
vt 0.580294 0.080294
vt 0.550447 0.116663
vt 0.528269 0.158156
vt 0.514611 0.203179
vt 0.510000 0.250000
vt 0.514612 0.296822
vt 0.528269 0.341844
vt 0.550447 0.383337
vt 0.580295 0.419706
vt 0.616663 0.449553
vt 0.658156 0.471731
vt 0.703179 0.485389
vt 0.203179 0.485389
vn 0.0000 -0.4869 -0.8735
vn 0.0000 1.0000 0.0000
vn 0.1539 -0.4860 -0.8603
vn 0.3056 -0.4835 -0.8203
vn 0.4520 -0.4796 -0.7521
vn 0.5886 -0.4747 -0.6543
vn 0.7088 -0.4696 -0.5263
vn 0.8042 -0.4650 -0.3701
vn 0.8660 -0.4619 -0.1914
vn 0.8875 -0.4607 0.0000
vn 0.8660 -0.4619 0.1914
vn 0.8042 -0.4650 0.3701
vn 0.7088 -0.4696 0.5263
vn 0.5886 -0.4747 0.6543
vn 0.4520 -0.4796 0.7521
vn 0.3056 -0.4835 0.8203
vn 0.1539 -0.4860 0.8603
vn 0.0000 -0.4869 0.8735
vn -0.1539 -0.4860 0.8603
vn -0.3056 -0.4835 0.8203
vn -0.4520 -0.4796 0.7521
vn -0.5886 -0.4747 0.6543
vn -0.7088 -0.4696 0.5263
vn -0.8042 -0.4650 0.3701
vn -0.8660 -0.4619 0.1914
vn -0.8875 -0.4607 0.0000
vn -0.8660 -0.4619 -0.1914
vn -0.8042 -0.4650 -0.3701
vn -0.7088 -0.4696 -0.5263
vn -0.5886 -0.4747 -0.6543
vn -0.4520 -0.4796 -0.7521
vn -0.3056 -0.4835 -0.8203
vn -0.1539 -0.4860 -0.8603
usemtl Material.003
s 1
f 34/66/34 66/67/35 35/68/36
f 35/68/36 66/67/35 36/69/37
f 36/69/37 66/67/35 37/70/38
f 37/70/38 66/67/35 38/71/39
f 38/71/39 66/67/35 39/72/40
f 39/72/40 66/67/35 40/73/41
f 40/73/41 66/67/35 41/74/42
f 41/74/42 66/67/35 42/75/43
f 42/75/43 66/67/35 43/76/44
f 43/76/44 66/67/35 44/77/45
f 44/77/45 66/67/35 45/78/46
f 45/78/46 66/67/35 46/79/47
f 46/79/47 66/67/35 47/80/48
f 47/80/48 66/67/35 48/81/49
f 48/81/49 66/67/35 49/82/50
f 49/82/50 66/67/35 50/83/51
f 50/83/51 66/67/35 51/84/52
f 51/84/52 66/67/35 52/85/53
f 52/85/53 66/67/35 53/86/54
f 53/86/54 66/67/35 54/87/55
f 54/87/55 66/67/35 55/88/56
f 55/88/56 66/67/35 56/89/57
f 56/89/57 66/67/35 57/90/58
f 57/90/58 66/67/35 58/91/59
f 58/91/59 66/67/35 59/92/60
f 59/92/60 66/67/35 60/93/61
f 60/93/61 66/67/35 61/94/62
f 61/94/62 66/67/35 62/95/63
f 62/95/63 66/67/35 63/96/64
f 63/96/64 66/67/35 64/97/65
f 34/98/34 35/99/36 36/100/37 37/101/38 38/102/39 39/103/40 40/104/41 41/105/42 42/106/43 43/107/44 44/108/45 45/109/46 46/110/47 47/111/48 48/112/49 49/113/50 50/114/51 51/115/52 52/116/53 53/117/54 54/118/55 55/119/56 56/120/57 57/121/58 58/122/59 59/123/60 60/124/61 61/125/62 62/126/63 63/127/64 64/128/65 65/129/66
f 64/97/65 66/67/35 65/130/66
f 65/130/66 66/67/35 34/66/34
