# Blender v2.91.2 OBJ File: 'cannon.blend'
# www.blender.org
mtllib cannon.mtl
o Cube
v 2.171404 2.938354 -1.447144
v 1.429837 0.264350 -1.447144
v 2.171404 2.938354 1.447144
v 1.429837 0.264350 1.447144
v -1.429837 3.937068 -1.447144
v -2.171404 1.263063 -1.447144
v -1.429837 3.937068 1.447144
v -2.171404 1.263063 1.447144
vt 0.625000 0.500000
vt 0.875000 0.500000
vt 0.875000 0.750000
vt 0.625000 0.750000
vt 0.375000 0.750000
vt 0.625000 1.000000
vt 0.375000 1.000000
vt 0.375000 0.000000
vt 0.625000 0.000000
vt 0.625000 0.250000
vt 0.375000 0.250000
vt 0.125000 0.500000
vt 0.375000 0.500000
vt 0.125000 0.750000
vn 0.2672 0.9636 0.0000
vn -0.0000 0.0000 1.0000
vn -0.9636 0.2672 0.0000
vn -0.2672 -0.9636 0.0000
vn -0.0000 0.0000 -1.0000
usemtl Material
s off
f 1/1/1 5/2/1 7/3/1 3/4/1
f 4/5/2 3/4/2 7/6/2 8/7/2
f 8/8/3 7/9/3 5/10/3 6/11/3
f 6/12/4 2/13/4 4/5/4 8/14/4
f 6/11/5 5/10/5 1/1/5 2/13/5
